<?xml version="1.0" encoding="UTF-8" standalone="no"?>
<!DOCTYPE svg PUBLIC "-//W3C//DTD SVG 1.1//EN"
 "http://www.w3.org/Graphics/SVG/1.1/DTD/svg11.dtd">
<!-- Generated by graphviz version 14.0.2 (20251019.1705)
 -->
<!-- Pages: 1 -->
<svg width="511pt" height="127pt"
 viewBox="0.00 0.00 511.00 127.00" xmlns="http://www.w3.org/2000/svg" xmlns:xlink="http://www.w3.org/1999/xlink">
<g id="graph0" class="graph" transform="scale(1 1) rotate(0) translate(4 123)">
<polygon fill="white" stroke="none" points="-4,4 -4,-123 506.5,-123 506.5,4 -4,4"/>
<!-- 2174365842656 -->
<g id="node1" class="node">
<title>2174365842656</title>
<polygon fill="none" stroke="black" points="422.75,-54.5 422.75,-90.5 502.5,-90.5 502.5,-54.5 422.75,-54.5"/>
<text xml:space="preserve" text-anchor="middle" x="462.62" y="-67.7" font-family="Times New Roman,serif" font-size="14.00">data 4.0000</text>
</g>
<!-- 2174365842656+ -->
<g id="node2" class="node">
<title>2174365842656+</title>
<ellipse fill="none" stroke="black" cx="359.75" cy="-72.5" rx="27" ry="18"/>
<text xml:space="preserve" text-anchor="middle" x="359.75" y="-67.45" font-family="Times New Roman,serif" font-size="14.00">+</text>
</g>
<!-- 2174365842656+&#45;&gt;2174365842656 -->
<g id="edge1" class="edge">
<title>2174365842656+&#45;&gt;2174365842656</title>
<path fill="none" stroke="black" d="M386.99,-72.5C394.46,-72.5 402.85,-72.5 411.24,-72.5"/>
<polygon fill="black" stroke="black" points="411.08,-76 421.08,-72.5 411.08,-69 411.08,-76"/>
</g>
<!-- 2174366714128 -->
<g id="node3" class="node">
<title>2174366714128</title>
<polygon fill="none" stroke="black" points="0,-55.5 0,-91.5 84.25,-91.5 84.25,-55.5 0,-55.5"/>
<text xml:space="preserve" text-anchor="middle" x="42.12" y="-68.7" font-family="Times New Roman,serif" font-size="14.00">data &#45;3.0000</text>
</g>
<!-- 2174365842352* -->
<g id="node7" class="node">
<title>2174365842352*</title>
<ellipse fill="none" stroke="black" cx="147.25" cy="-45.5" rx="27" ry="18"/>
<text xml:space="preserve" text-anchor="middle" x="147.25" y="-40.45" font-family="Times New Roman,serif" font-size="14.00">*</text>
</g>
<!-- 2174366714128&#45;&gt;2174365842352* -->
<g id="edge6" class="edge">
<title>2174366714128&#45;&gt;2174365842352*</title>
<path fill="none" stroke="black" d="M84.48,-62.27C93.18,-59.91 102.29,-57.43 110.76,-55.14"/>
<polygon fill="black" stroke="black" points="111.62,-58.53 120.35,-52.53 109.78,-51.77 111.62,-58.53"/>
</g>
<!-- 2174365850928 -->
<g id="node4" class="node">
<title>2174365850928</title>
<polygon fill="none" stroke="black" points="2.25,-0.5 2.25,-36.5 82,-36.5 82,-0.5 2.25,-0.5"/>
<text xml:space="preserve" text-anchor="middle" x="42.12" y="-13.7" font-family="Times New Roman,serif" font-size="14.00">data 2.0000</text>
</g>
<!-- 2174365850928&#45;&gt;2174365842352* -->
<g id="edge3" class="edge">
<title>2174365850928&#45;&gt;2174365842352*</title>
<path fill="none" stroke="black" d="M82.41,-28.78C91.69,-31.22 101.54,-33.79 110.65,-36.18"/>
<polygon fill="black" stroke="black" points="109.68,-39.54 120.24,-38.69 111.45,-32.77 109.68,-39.54"/>
</g>
<!-- 2174366714768 -->
<g id="node5" class="node">
<title>2174366714768</title>
<polygon fill="none" stroke="black" points="210.25,-82.5 210.25,-118.5 296.75,-118.5 296.75,-82.5 210.25,-82.5"/>
<text xml:space="preserve" text-anchor="middle" x="253.5" y="-95.7" font-family="Times New Roman,serif" font-size="14.00">data 10.0000</text>
</g>
<!-- 2174366714768&#45;&gt;2174365842656+ -->
<g id="edge4" class="edge">
<title>2174366714768&#45;&gt;2174365842656+</title>
<path fill="none" stroke="black" d="M297.2,-89.03C305.86,-86.7 314.88,-84.28 323.26,-82.03"/>
<polygon fill="black" stroke="black" points="323.98,-85.46 332.73,-79.49 322.17,-78.7 323.98,-85.46"/>
</g>
<!-- 2174365842352 -->
<g id="node6" class="node">
<title>2174365842352</title>
<polygon fill="none" stroke="black" points="211.38,-27.5 211.38,-63.5 295.62,-63.5 295.62,-27.5 211.38,-27.5"/>
<text xml:space="preserve" text-anchor="middle" x="253.5" y="-40.7" font-family="Times New Roman,serif" font-size="14.00">data &#45;6.0000</text>
</g>
<!-- 2174365842352&#45;&gt;2174365842656+ -->
<g id="edge5" class="edge">
<title>2174365842352&#45;&gt;2174365842656+</title>
<path fill="none" stroke="black" d="M296,-56.25C305,-58.58 314.45,-61.03 323.19,-63.29"/>
<polygon fill="black" stroke="black" points="322.18,-66.64 332.73,-65.76 323.93,-59.87 322.18,-66.64"/>
</g>
<!-- 2174365842352*&#45;&gt;2174365842352 -->
<g id="edge2" class="edge">
<title>2174365842352*&#45;&gt;2174365842352</title>
<path fill="none" stroke="black" d="M174.56,-45.5C182.27,-45.5 191,-45.5 199.75,-45.5"/>
<polygon fill="black" stroke="black" points="199.67,-49 209.67,-45.5 199.67,-42 199.67,-49"/>
</g>
</g>
</svg>
