<?xml version="1.0" encoding="UTF-8" standalone="no"?>
<!DOCTYPE svg PUBLIC "-//W3C//DTD SVG 1.1//EN"
 "http://www.w3.org/Graphics/SVG/1.1/DTD/svg11.dtd">
<!-- Generated by graphviz version 14.0.2 (20251019.1705)
 -->
<!-- Pages: 1 -->
<svg width="2916pt" height="239pt"
 viewBox="0.00 0.00 2916.00 239.00" xmlns="http://www.w3.org/2000/svg" xmlns:xlink="http://www.w3.org/1999/xlink">
<g id="graph0" class="graph" transform="scale(1 1) rotate(0) translate(4 235)">
<polygon fill="white" stroke="none" points="-4,4 -4,-235 2911.75,-235 2911.75,4 -4,4"/>
<!-- 2046763138576 -->
<g id="node1" class="node">
<title>2046763138576</title>
<polygon fill="none" stroke="black" points="2.25,-194.5 2.25,-230.5 195.75,-230.5 195.75,-194.5 2.25,-194.5"/>
<text xml:space="preserve" text-anchor="middle" x="18.5" y="-207.7" font-family="Times New Roman,serif" font-size="14.00">w2</text>
<polyline fill="none" stroke="black" points="34.75,-195 34.75,-230.5"/>
<text xml:space="preserve" text-anchor="middle" x="74.62" y="-207.7" font-family="Times New Roman,serif" font-size="14.00">data 1.0000</text>
<polyline fill="none" stroke="black" points="114.5,-195 114.5,-230.5"/>
<text xml:space="preserve" text-anchor="middle" x="155.12" y="-207.7" font-family="Times New Roman,serif" font-size="14.00">grad 0.0000</text>
</g>
<!-- 2046757490752* -->
<g id="node5" class="node">
<title>2046757490752*</title>
<ellipse fill="none" stroke="black" cx="261" cy="-157.5" rx="27" ry="18"/>
<text xml:space="preserve" text-anchor="middle" x="261" y="-152.45" font-family="Times New Roman,serif" font-size="14.00">*</text>
</g>
<!-- 2046763138576&#45;&gt;2046757490752* -->
<g id="edge28" class="edge">
<title>2046763138576&#45;&gt;2046757490752*</title>
<path fill="none" stroke="black" d="M172.12,-194.01C180.9,-191.35 189.7,-188.5 198,-185.5 208.09,-181.86 218.82,-177.27 228.47,-172.88"/>
<polygon fill="black" stroke="black" points="229.86,-176.09 237.45,-168.69 226.9,-169.75 229.86,-176.09"/>
</g>
<!-- 2046763917360 -->
<g id="node2" class="node">
<title>2046763917360</title>
<polygon fill="none" stroke="black" points="668.25,-111.5 668.25,-147.5 925.5,-147.5 925.5,-111.5 668.25,-111.5"/>
<text xml:space="preserve" text-anchor="middle" x="714.12" y="-124.7" font-family="Times New Roman,serif" font-size="14.00">x1w1 + x2w2</text>
<polyline fill="none" stroke="black" points="760,-112 760,-147.5"/>
<text xml:space="preserve" text-anchor="middle" x="802.12" y="-124.7" font-family="Times New Roman,serif" font-size="14.00">data &#45;6.0000</text>
<polyline fill="none" stroke="black" points="844.25,-112 844.25,-147.5"/>
<text xml:space="preserve" text-anchor="middle" x="884.88" y="-124.7" font-family="Times New Roman,serif" font-size="14.00">grad 0.5000</text>
</g>
<!-- 2046757367376+ -->
<g id="node7" class="node">
<title>2046757367376+</title>
<ellipse fill="none" stroke="black" cx="988.5" cy="-101.5" rx="27" ry="18"/>
<text xml:space="preserve" text-anchor="middle" x="988.5" y="-96.45" font-family="Times New Roman,serif" font-size="14.00">+</text>
</g>
<!-- 2046763917360&#45;&gt;2046757367376+ -->
<g id="edge13" class="edge">
<title>2046763917360&#45;&gt;2046757367376+</title>
<path fill="none" stroke="black" d="M923.04,-111.02C932.9,-109.56 942.28,-108.18 950.67,-106.94"/>
<polygon fill="black" stroke="black" points="950.94,-110.44 960.33,-105.51 949.92,-103.51 950.94,-110.44"/>
</g>
<!-- 2046763917360+ -->
<g id="node3" class="node">
<title>2046763917360+</title>
<ellipse fill="none" stroke="black" cx="605.25" cy="-129.5" rx="27" ry="18"/>
<text xml:space="preserve" text-anchor="middle" x="605.25" y="-124.45" font-family="Times New Roman,serif" font-size="14.00">+</text>
</g>
<!-- 2046763917360+&#45;&gt;2046763917360 -->
<g id="edge1" class="edge">
<title>2046763917360+&#45;&gt;2046763917360</title>
<path fill="none" stroke="black" d="M632.62,-129.5C639.63,-129.5 647.71,-129.5 656.45,-129.5"/>
<polygon fill="black" stroke="black" points="656.32,-133 666.32,-129.5 656.32,-126 656.32,-133"/>
</g>
<!-- 2046757490752 -->
<g id="node4" class="node">
<title>2046757490752</title>
<polygon fill="none" stroke="black" points="326.25,-139.5 326.25,-175.5 540,-175.5 540,-139.5 326.25,-139.5"/>
<text xml:space="preserve" text-anchor="middle" x="352.62" y="-152.7" font-family="Times New Roman,serif" font-size="14.00">x2*w2</text>
<polyline fill="none" stroke="black" points="379,-140 379,-175.5"/>
<text xml:space="preserve" text-anchor="middle" x="418.88" y="-152.7" font-family="Times New Roman,serif" font-size="14.00">data 0.0000</text>
<polyline fill="none" stroke="black" points="458.75,-140 458.75,-175.5"/>
<text xml:space="preserve" text-anchor="middle" x="499.38" y="-152.7" font-family="Times New Roman,serif" font-size="14.00">grad 0.5000</text>
</g>
<!-- 2046757490752&#45;&gt;2046763917360+ -->
<g id="edge27" class="edge">
<title>2046757490752&#45;&gt;2046763917360+</title>
<path fill="none" stroke="black" d="M540.42,-140.01C549.89,-138.45 559,-136.95 567.21,-135.6"/>
<polygon fill="black" stroke="black" points="567.75,-139.05 577.05,-133.98 566.62,-132.15 567.75,-139.05"/>
</g>
<!-- 2046757490752*&#45;&gt;2046757490752 -->
<g id="edge2" class="edge">
<title>2046757490752*&#45;&gt;2046757490752</title>
<path fill="none" stroke="black" d="M288.21,-157.5C296,-157.5 305.08,-157.5 314.82,-157.5"/>
<polygon fill="black" stroke="black" points="314.55,-161 324.55,-157.5 314.55,-154 314.55,-161"/>
</g>
<!-- 2046757367376 -->
<g id="node6" class="node">
<title>2046757367376</title>
<polygon fill="none" stroke="black" points="1051.5,-83.5 1051.5,-119.5 1235.25,-119.5 1235.25,-83.5 1051.5,-83.5"/>
<text xml:space="preserve" text-anchor="middle" x="1062.88" y="-96.7" font-family="Times New Roman,serif" font-size="14.00">n</text>
<polyline fill="none" stroke="black" points="1074.25,-84 1074.25,-119.5"/>
<text xml:space="preserve" text-anchor="middle" x="1114.12" y="-96.7" font-family="Times New Roman,serif" font-size="14.00">data 0.8814</text>
<polyline fill="none" stroke="black" points="1154,-84 1154,-119.5"/>
<text xml:space="preserve" text-anchor="middle" x="1194.62" y="-96.7" font-family="Times New Roman,serif" font-size="14.00">grad 0.5000</text>
</g>
<!-- 2046757407632* -->
<g id="node28" class="node">
<title>2046757407632*</title>
<ellipse fill="none" stroke="black" cx="1298.25" cy="-73.5" rx="27" ry="18"/>
<text xml:space="preserve" text-anchor="middle" x="1298.25" y="-68.45" font-family="Times New Roman,serif" font-size="14.00">*</text>
</g>
<!-- 2046757367376&#45;&gt;2046757407632* -->
<g id="edge12" class="edge">
<title>2046757367376&#45;&gt;2046757407632*</title>
<path fill="none" stroke="black" d="M1235.51,-84.81C1244.34,-83.19 1252.9,-81.62 1260.69,-80.2"/>
<polygon fill="black" stroke="black" points="1261.17,-83.67 1270.38,-78.42 1259.91,-76.78 1261.17,-83.67"/>
</g>
<!-- 2046757367376+&#45;&gt;2046757367376 -->
<g id="edge3" class="edge">
<title>2046757367376+&#45;&gt;2046757367376</title>
<path fill="none" stroke="black" d="M1015.78,-101.5C1022.92,-101.5 1031.11,-101.5 1039.82,-101.5"/>
<polygon fill="black" stroke="black" points="1039.56,-105 1049.56,-101.5 1039.56,-98 1039.56,-105"/>
</g>
<!-- 2046764010064 -->
<g id="node8" class="node">
<title>2046764010064</title>
<polygon fill="none" stroke="black" points="3.75,-139.5 3.75,-175.5 194.25,-175.5 194.25,-139.5 3.75,-139.5"/>
<text xml:space="preserve" text-anchor="middle" x="18.5" y="-152.7" font-family="Times New Roman,serif" font-size="14.00">x2</text>
<polyline fill="none" stroke="black" points="33.25,-140 33.25,-175.5"/>
<text xml:space="preserve" text-anchor="middle" x="73.12" y="-152.7" font-family="Times New Roman,serif" font-size="14.00">data 0.0000</text>
<polyline fill="none" stroke="black" points="113,-140 113,-175.5"/>
<text xml:space="preserve" text-anchor="middle" x="153.62" y="-152.7" font-family="Times New Roman,serif" font-size="14.00">grad 0.5000</text>
</g>
<!-- 2046764010064&#45;&gt;2046757490752* -->
<g id="edge22" class="edge">
<title>2046764010064&#45;&gt;2046757490752*</title>
<path fill="none" stroke="black" d="M194.46,-157.5C204.21,-157.5 213.66,-157.5 222.21,-157.5"/>
<polygon fill="black" stroke="black" points="222.12,-161 232.12,-157.5 222.12,-154 222.12,-161"/>
</g>
<!-- 2046790303824 -->
<g id="node9" class="node">
<title>2046790303824</title>
<polygon fill="none" stroke="black" points="705,-56.5 705,-92.5 888.75,-92.5 888.75,-56.5 705,-56.5"/>
<text xml:space="preserve" text-anchor="middle" x="716.38" y="-69.7" font-family="Times New Roman,serif" font-size="14.00">b</text>
<polyline fill="none" stroke="black" points="727.75,-57 727.75,-92.5"/>
<text xml:space="preserve" text-anchor="middle" x="767.62" y="-69.7" font-family="Times New Roman,serif" font-size="14.00">data 6.8814</text>
<polyline fill="none" stroke="black" points="807.5,-57 807.5,-92.5"/>
<text xml:space="preserve" text-anchor="middle" x="848.12" y="-69.7" font-family="Times New Roman,serif" font-size="14.00">grad 0.5000</text>
</g>
<!-- 2046790303824&#45;&gt;2046757367376+ -->
<g id="edge16" class="edge">
<title>2046790303824&#45;&gt;2046757367376+</title>
<path fill="none" stroke="black" d="M889.08,-87.49C910.92,-90.6 933.02,-93.74 950.73,-96.26"/>
<polygon fill="black" stroke="black" points="950.07,-99.71 960.46,-97.65 951.05,-92.78 950.07,-99.71"/>
</g>
<!-- 2046764353152 -->
<g id="node10" class="node">
<title>2046764353152</title>
<polygon fill="none" stroke="black" points="2724,-54.5 2724,-90.5 2907.75,-90.5 2907.75,-54.5 2724,-54.5"/>
<text xml:space="preserve" text-anchor="middle" x="2735.38" y="-67.7" font-family="Times New Roman,serif" font-size="14.00">o</text>
<polyline fill="none" stroke="black" points="2746.75,-55 2746.75,-90.5"/>
<text xml:space="preserve" text-anchor="middle" x="2786.62" y="-67.7" font-family="Times New Roman,serif" font-size="14.00">data 0.7071</text>
<polyline fill="none" stroke="black" points="2826.5,-55 2826.5,-90.5"/>
<text xml:space="preserve" text-anchor="middle" x="2867.12" y="-67.7" font-family="Times New Roman,serif" font-size="14.00">grad 1.0000</text>
</g>
<!-- 2046764353152* -->
<g id="node11" class="node">
<title>2046764353152*</title>
<ellipse fill="none" stroke="black" cx="2661" cy="-72.5" rx="27" ry="18"/>
<text xml:space="preserve" text-anchor="middle" x="2661" y="-67.45" font-family="Times New Roman,serif" font-size="14.00">*</text>
</g>
<!-- 2046764353152*&#45;&gt;2046764353152 -->
<g id="edge4" class="edge">
<title>2046764353152*&#45;&gt;2046764353152</title>
<path fill="none" stroke="black" d="M2688.28,-72.5C2695.42,-72.5 2703.61,-72.5 2712.32,-72.5"/>
<polygon fill="black" stroke="black" points="2712.06,-76 2722.06,-72.5 2712.06,-69 2712.06,-76"/>
</g>
<!-- 2046764403840 -->
<g id="node12" class="node">
<title>2046764403840</title>
<polygon fill="none" stroke="black" points="1670.25,-55.5 1670.25,-91.5 1851,-91.5 1851,-55.5 1670.25,-55.5"/>
<text xml:space="preserve" text-anchor="middle" x="1680.12" y="-68.7" font-family="Times New Roman,serif" font-size="14.00"> </text>
<polyline fill="none" stroke="black" points="1690,-56 1690,-91.5"/>
<text xml:space="preserve" text-anchor="middle" x="1729.88" y="-68.7" font-family="Times New Roman,serif" font-size="14.00">data 5.8284</text>
<polyline fill="none" stroke="black" points="1769.75,-56 1769.75,-91.5"/>
<text xml:space="preserve" text-anchor="middle" x="1810.38" y="-68.7" font-family="Times New Roman,serif" font-size="14.00">grad 0.0429</text>
</g>
<!-- 2046790161072+ -->
<g id="node16" class="node">
<title>2046790161072+</title>
<ellipse fill="none" stroke="black" cx="1916.25" cy="-100.5" rx="27" ry="18"/>
<text xml:space="preserve" text-anchor="middle" x="1916.25" y="-95.45" font-family="Times New Roman,serif" font-size="14.00">+</text>
</g>
<!-- 2046764403840&#45;&gt;2046790161072+ -->
<g id="edge20" class="edge">
<title>2046764403840&#45;&gt;2046790161072+</title>
<path fill="none" stroke="black" d="M1851.43,-89.28C1860.98,-90.96 1870.26,-92.59 1878.64,-94.07"/>
<polygon fill="black" stroke="black" points="1877.89,-97.49 1888.35,-95.77 1879.11,-90.59 1877.89,-97.49"/>
</g>
<!-- 2046764126608+ -->
<g id="node26" class="node">
<title>2046764126608+</title>
<ellipse fill="none" stroke="black" cx="1916.25" cy="-45.5" rx="27" ry="18"/>
<text xml:space="preserve" text-anchor="middle" x="1916.25" y="-40.45" font-family="Times New Roman,serif" font-size="14.00">+</text>
</g>
<!-- 2046764403840&#45;&gt;2046764126608+ -->
<g id="edge23" class="edge">
<title>2046764403840&#45;&gt;2046764126608+</title>
<path fill="none" stroke="black" d="M1851.43,-57.13C1860.98,-55.39 1870.26,-53.7 1878.64,-52.17"/>
<polygon fill="black" stroke="black" points="1879.14,-55.64 1888.35,-50.4 1877.89,-48.75 1879.14,-55.64"/>
</g>
<!-- 2046764403840exp -->
<g id="node13" class="node">
<title>2046764403840exp</title>
<ellipse fill="none" stroke="black" cx="1605" cy="-73.5" rx="27" ry="18"/>
<text xml:space="preserve" text-anchor="middle" x="1605" y="-68.45" font-family="Times New Roman,serif" font-size="14.00">exp</text>
</g>
<!-- 2046764403840exp&#45;&gt;2046764403840 -->
<g id="edge5" class="edge">
<title>2046764403840exp&#45;&gt;2046764403840</title>
<path fill="none" stroke="black" d="M1632.41,-73.5C1640.12,-73.5 1649.04,-73.5 1658.51,-73.5"/>
<polygon fill="black" stroke="black" points="1658.32,-77 1668.32,-73.5 1658.32,-70 1658.32,-77"/>
</g>
<!-- 2046763114112 -->
<g id="node14" class="node">
<title>2046763114112</title>
<polygon fill="none" stroke="black" points="1.5,-84.5 1.5,-120.5 196.5,-120.5 196.5,-84.5 1.5,-84.5"/>
<text xml:space="preserve" text-anchor="middle" x="16.25" y="-97.7" font-family="Times New Roman,serif" font-size="14.00">x1</text>
<polyline fill="none" stroke="black" points="31,-85 31,-120.5"/>
<text xml:space="preserve" text-anchor="middle" x="70.88" y="-97.7" font-family="Times New Roman,serif" font-size="14.00">data 2.0000</text>
<polyline fill="none" stroke="black" points="110.75,-85 110.75,-120.5"/>
<text xml:space="preserve" text-anchor="middle" x="153.62" y="-97.7" font-family="Times New Roman,serif" font-size="14.00">grad &#45;1.5000</text>
</g>
<!-- 2046754844848* -->
<g id="node18" class="node">
<title>2046754844848*</title>
<ellipse fill="none" stroke="black" cx="261" cy="-102.5" rx="27" ry="18"/>
<text xml:space="preserve" text-anchor="middle" x="261" y="-97.45" font-family="Times New Roman,serif" font-size="14.00">*</text>
</g>
<!-- 2046763114112&#45;&gt;2046754844848* -->
<g id="edge11" class="edge">
<title>2046763114112&#45;&gt;2046754844848*</title>
<path fill="none" stroke="black" d="M196.76,-102.5C205.77,-102.5 214.47,-102.5 222.4,-102.5"/>
<polygon fill="black" stroke="black" points="222.25,-106 232.25,-102.5 222.25,-99 222.25,-106"/>
</g>
<!-- 2046790161072 -->
<g id="node15" class="node">
<title>2046790161072</title>
<polygon fill="none" stroke="black" points="2200.5,-82.5 2200.5,-118.5 2381.25,-118.5 2381.25,-82.5 2200.5,-82.5"/>
<text xml:space="preserve" text-anchor="middle" x="2210.38" y="-95.7" font-family="Times New Roman,serif" font-size="14.00"> </text>
<polyline fill="none" stroke="black" points="2220.25,-83 2220.25,-118.5"/>
<text xml:space="preserve" text-anchor="middle" x="2260.12" y="-95.7" font-family="Times New Roman,serif" font-size="14.00">data 4.8284</text>
<polyline fill="none" stroke="black" points="2300,-83 2300,-118.5"/>
<text xml:space="preserve" text-anchor="middle" x="2340.62" y="-95.7" font-family="Times New Roman,serif" font-size="14.00">grad 0.1464</text>
</g>
<!-- 2046790161072&#45;&gt;2046764353152* -->
<g id="edge15" class="edge">
<title>2046790161072&#45;&gt;2046764353152*</title>
<path fill="none" stroke="black" d="M2381.63,-93.89C2442.65,-89.36 2525.2,-83.17 2598,-77.5 2605.88,-76.89 2614.33,-76.21 2622.37,-75.57"/>
<polygon fill="black" stroke="black" points="2622.56,-79.06 2632.25,-74.77 2622,-72.09 2622.56,-79.06"/>
</g>
<!-- 2046790161072+&#45;&gt;2046790161072 -->
<g id="edge6" class="edge">
<title>2046790161072+&#45;&gt;2046790161072</title>
<path fill="none" stroke="black" d="M1943.75,-100.5C1994.01,-100.5 2105.57,-100.5 2188.53,-100.5"/>
<polygon fill="black" stroke="black" points="2188.52,-104 2198.52,-100.5 2188.52,-97 2188.52,-104"/>
</g>
<!-- 2046754844848 -->
<g id="node17" class="node">
<title>2046754844848</title>
<polygon fill="none" stroke="black" points="324,-84.5 324,-120.5 542.25,-120.5 542.25,-84.5 324,-84.5"/>
<text xml:space="preserve" text-anchor="middle" x="350.38" y="-97.7" font-family="Times New Roman,serif" font-size="14.00">x1*w1</text>
<polyline fill="none" stroke="black" points="376.75,-85 376.75,-120.5"/>
<text xml:space="preserve" text-anchor="middle" x="418.88" y="-97.7" font-family="Times New Roman,serif" font-size="14.00">data &#45;6.0000</text>
<polyline fill="none" stroke="black" points="461,-85 461,-120.5"/>
<text xml:space="preserve" text-anchor="middle" x="501.62" y="-97.7" font-family="Times New Roman,serif" font-size="14.00">grad 0.5000</text>
</g>
<!-- 2046754844848&#45;&gt;2046763917360+ -->
<g id="edge14" class="edge">
<title>2046754844848&#45;&gt;2046763917360+</title>
<path fill="none" stroke="black" d="M542.35,-119.68C551.12,-121.07 559.54,-122.4 567.19,-123.62"/>
<polygon fill="black" stroke="black" points="566.59,-127.07 577.02,-125.18 567.69,-120.15 566.59,-127.07"/>
</g>
<!-- 2046754844848*&#45;&gt;2046754844848 -->
<g id="edge7" class="edge">
<title>2046754844848*&#45;&gt;2046754844848</title>
<path fill="none" stroke="black" d="M288.21,-102.5C295.29,-102.5 303.43,-102.5 312.17,-102.5"/>
<polygon fill="black" stroke="black" points="312.01,-106 322.01,-102.5 312.01,-99 312.01,-106"/>
</g>
<!-- 2046764010704 -->
<g id="node19" class="node">
<title>2046764010704</title>
<polygon fill="none" stroke="black" points="0,-29.5 0,-65.5 198,-65.5 198,-29.5 0,-29.5"/>
<text xml:space="preserve" text-anchor="middle" x="16.25" y="-42.7" font-family="Times New Roman,serif" font-size="14.00">w1</text>
<polyline fill="none" stroke="black" points="32.5,-30 32.5,-65.5"/>
<text xml:space="preserve" text-anchor="middle" x="74.62" y="-42.7" font-family="Times New Roman,serif" font-size="14.00">data &#45;3.0000</text>
<polyline fill="none" stroke="black" points="116.75,-30 116.75,-65.5"/>
<text xml:space="preserve" text-anchor="middle" x="157.38" y="-42.7" font-family="Times New Roman,serif" font-size="14.00">grad 1.0000</text>
</g>
<!-- 2046764010704&#45;&gt;2046754844848* -->
<g id="edge24" class="edge">
<title>2046764010704&#45;&gt;2046754844848*</title>
<path fill="none" stroke="black" d="M168.91,-65.94C178.74,-68.93 188.67,-72.15 198,-75.5 207.96,-79.07 218.58,-83.47 228.18,-87.68"/>
<polygon fill="black" stroke="black" points="226.54,-90.78 237.1,-91.67 229.4,-84.39 226.54,-90.78"/>
</g>
<!-- 2046764126800 -->
<g id="node20" class="node">
<title>2046764126800</title>
<polygon fill="none" stroke="black" points="2417.25,-31.5 2417.25,-67.5 2598,-67.5 2598,-31.5 2417.25,-31.5"/>
<text xml:space="preserve" text-anchor="middle" x="2427.12" y="-44.7" font-family="Times New Roman,serif" font-size="14.00"> </text>
<polyline fill="none" stroke="black" points="2437,-32 2437,-67.5"/>
<text xml:space="preserve" text-anchor="middle" x="2476.88" y="-44.7" font-family="Times New Roman,serif" font-size="14.00">data 0.1464</text>
<polyline fill="none" stroke="black" points="2516.75,-32 2516.75,-67.5"/>
<text xml:space="preserve" text-anchor="middle" x="2557.38" y="-44.7" font-family="Times New Roman,serif" font-size="14.00">grad 4.8284</text>
</g>
<!-- 2046764126800&#45;&gt;2046764353152* -->
<g id="edge17" class="edge">
<title>2046764126800&#45;&gt;2046764353152*</title>
<path fill="none" stroke="black" d="M2598.43,-63.15C2607.04,-64.45 2615.39,-65.72 2623.03,-66.88"/>
<polygon fill="black" stroke="black" points="2622.46,-70.34 2632.87,-68.38 2623.51,-63.41 2622.46,-70.34"/>
</g>
<!-- 2046764126800**&#45;1 -->
<g id="node21" class="node">
<title>2046764126800**&#45;1</title>
<ellipse fill="none" stroke="black" cx="2290.88" cy="-45.5" rx="27.81" ry="18"/>
<text xml:space="preserve" text-anchor="middle" x="2290.88" y="-40.45" font-family="Times New Roman,serif" font-size="14.00">**&#45;1</text>
</g>
<!-- 2046764126800**&#45;1&#45;&gt;2046764126800 -->
<g id="edge8" class="edge">
<title>2046764126800**&#45;1&#45;&gt;2046764126800</title>
<path fill="none" stroke="black" d="M2319.07,-46.01C2341.18,-46.42 2373.83,-47.03 2405.72,-47.62"/>
<polygon fill="black" stroke="black" points="2405.37,-51.11 2415.43,-47.8 2405.5,-44.12 2405.37,-51.11"/>
</g>
<!-- 2046790160624 -->
<g id="node22" class="node">
<title>2046790160624</title>
<polygon fill="none" stroke="black" points="1668,-110.5 1668,-146.5 1853.25,-146.5 1853.25,-110.5 1668,-110.5"/>
<text xml:space="preserve" text-anchor="middle" x="1677.88" y="-123.7" font-family="Times New Roman,serif" font-size="14.00"> </text>
<polyline fill="none" stroke="black" points="1687.75,-111 1687.75,-146.5"/>
<text xml:space="preserve" text-anchor="middle" x="1729.88" y="-123.7" font-family="Times New Roman,serif" font-size="14.00">data &#45;1.0000</text>
<polyline fill="none" stroke="black" points="1772,-111 1772,-146.5"/>
<text xml:space="preserve" text-anchor="middle" x="1812.62" y="-123.7" font-family="Times New Roman,serif" font-size="14.00">grad 0.1464</text>
</g>
<!-- 2046790160624&#45;&gt;2046790161072+ -->
<g id="edge26" class="edge">
<title>2046790160624&#45;&gt;2046790161072+</title>
<path fill="none" stroke="black" d="M1853.65,-111.73C1862.39,-110.13 1870.86,-108.59 1878.58,-107.18"/>
<polygon fill="black" stroke="black" points="1878.95,-110.67 1888.16,-105.44 1877.69,-103.79 1878.95,-110.67"/>
</g>
<!-- 2046755382912 -->
<g id="node23" class="node">
<title>2046755382912</title>
<polygon fill="none" stroke="black" points="1668,-0.5 1668,-36.5 1853.25,-36.5 1853.25,-0.5 1668,-0.5"/>
<text xml:space="preserve" text-anchor="middle" x="1677.88" y="-13.7" font-family="Times New Roman,serif" font-size="14.00"> </text>
<polyline fill="none" stroke="black" points="1687.75,-1 1687.75,-36.5"/>
<text xml:space="preserve" text-anchor="middle" x="1727.62" y="-13.7" font-family="Times New Roman,serif" font-size="14.00">data 1.0000</text>
<polyline fill="none" stroke="black" points="1767.5,-1 1767.5,-36.5"/>
<text xml:space="preserve" text-anchor="middle" x="1810.38" y="-13.7" font-family="Times New Roman,serif" font-size="14.00">grad &#45;0.1036</text>
</g>
<!-- 2046755382912&#45;&gt;2046764126608+ -->
<g id="edge18" class="edge">
<title>2046755382912&#45;&gt;2046764126608+</title>
<path fill="none" stroke="black" d="M1853.65,-34.67C1862.39,-36.21 1870.86,-37.7 1878.58,-39.05"/>
<polygon fill="black" stroke="black" points="1877.7,-42.45 1888.16,-40.74 1878.91,-35.56 1877.7,-42.45"/>
</g>
<!-- 2046763943248 -->
<g id="node24" class="node">
<title>2046763943248</title>
<polygon fill="none" stroke="black" points="1053,-28.5 1053,-64.5 1233.75,-64.5 1233.75,-28.5 1053,-28.5"/>
<text xml:space="preserve" text-anchor="middle" x="1062.88" y="-41.7" font-family="Times New Roman,serif" font-size="14.00"> </text>
<polyline fill="none" stroke="black" points="1072.75,-29 1072.75,-64.5"/>
<text xml:space="preserve" text-anchor="middle" x="1112.62" y="-41.7" font-family="Times New Roman,serif" font-size="14.00">data 2.0000</text>
<polyline fill="none" stroke="black" points="1152.5,-29 1152.5,-64.5"/>
<text xml:space="preserve" text-anchor="middle" x="1193.12" y="-41.7" font-family="Times New Roman,serif" font-size="14.00">grad 0.2203</text>
</g>
<!-- 2046763943248&#45;&gt;2046757407632* -->
<g id="edge19" class="edge">
<title>2046763943248&#45;&gt;2046757407632*</title>
<path fill="none" stroke="black" d="M1234.19,-62.36C1243.44,-64 1252.43,-65.58 1260.58,-67.02"/>
<polygon fill="black" stroke="black" points="1259.91,-70.46 1270.37,-68.75 1261.13,-63.57 1259.91,-70.46"/>
</g>
<!-- 2046764126608 -->
<g id="node25" class="node">
<title>2046764126608</title>
<polygon fill="none" stroke="black" points="1979.25,-27.5 1979.25,-63.5 2164.5,-63.5 2164.5,-27.5 1979.25,-27.5"/>
<text xml:space="preserve" text-anchor="middle" x="1989.12" y="-40.7" font-family="Times New Roman,serif" font-size="14.00"> </text>
<polyline fill="none" stroke="black" points="1999,-28 1999,-63.5"/>
<text xml:space="preserve" text-anchor="middle" x="2038.88" y="-40.7" font-family="Times New Roman,serif" font-size="14.00">data 6.8284</text>
<polyline fill="none" stroke="black" points="2078.75,-28 2078.75,-63.5"/>
<text xml:space="preserve" text-anchor="middle" x="2121.62" y="-40.7" font-family="Times New Roman,serif" font-size="14.00">grad &#45;0.1036</text>
</g>
<!-- 2046764126608&#45;&gt;2046764126800**&#45;1 -->
<g id="edge25" class="edge">
<title>2046764126608&#45;&gt;2046764126800**&#45;1</title>
<path fill="none" stroke="black" d="M2164.9,-45.5C2195.14,-45.5 2227.13,-45.5 2251.17,-45.5"/>
<polygon fill="black" stroke="black" points="2251.12,-49 2261.12,-45.5 2251.12,-42 2251.12,-49"/>
</g>
<!-- 2046764126608+&#45;&gt;2046764126608 -->
<g id="edge9" class="edge">
<title>2046764126608+&#45;&gt;2046764126608</title>
<path fill="none" stroke="black" d="M1943.66,-45.5C1950.7,-45.5 1958.75,-45.5 1967.3,-45.5"/>
<polygon fill="black" stroke="black" points="1967.29,-49 1977.29,-45.5 1967.29,-42 1967.29,-49"/>
</g>
<!-- 2046757407632 -->
<g id="node27" class="node">
<title>2046757407632</title>
<polygon fill="none" stroke="black" points="1361.25,-55.5 1361.25,-91.5 1542,-91.5 1542,-55.5 1361.25,-55.5"/>
<text xml:space="preserve" text-anchor="middle" x="1371.12" y="-68.7" font-family="Times New Roman,serif" font-size="14.00"> </text>
<polyline fill="none" stroke="black" points="1381,-56 1381,-91.5"/>
<text xml:space="preserve" text-anchor="middle" x="1420.88" y="-68.7" font-family="Times New Roman,serif" font-size="14.00">data 1.7627</text>
<polyline fill="none" stroke="black" points="1460.75,-56 1460.75,-91.5"/>
<text xml:space="preserve" text-anchor="middle" x="1501.38" y="-68.7" font-family="Times New Roman,serif" font-size="14.00">grad 0.2500</text>
</g>
<!-- 2046757407632&#45;&gt;2046764403840exp -->
<g id="edge21" class="edge">
<title>2046757407632&#45;&gt;2046764403840exp</title>
<path fill="none" stroke="black" d="M1542.43,-73.5C1550.77,-73.5 1558.87,-73.5 1566.31,-73.5"/>
<polygon fill="black" stroke="black" points="1566.25,-77 1576.25,-73.5 1566.25,-70 1566.25,-77"/>
</g>
<!-- 2046757407632*&#45;&gt;2046757407632 -->
<g id="edge10" class="edge">
<title>2046757407632*&#45;&gt;2046757407632</title>
<path fill="none" stroke="black" d="M1325.62,-73.5C1332.76,-73.5 1340.95,-73.5 1349.64,-73.5"/>
<polygon fill="black" stroke="black" points="1349.36,-77 1359.36,-73.5 1349.36,-70 1349.36,-77"/>
</g>
</g>
</svg>
